<svg viewBox="0 0 32 32" xmlns="http://www.w3.org/2000/svg"><style>:root{--logo-bg:#0f172a;--logo-fg:#fff}html.dark :root{--logo-bg:#f8fafc;--logo-fg:#0f172a}@media(prefers-color-scheme:dark){:root{--logo-bg:#f8fafc;--logo-fg:#0f172a}}.logo-bg{fill:var(--logo-bg)}.logo-fg{fill:var(--logo-fg)}</style><rect width="32" height="32" rx="8" class="logo-bg"/><path d="M20.96 9.73l4 14-1.92.55-4-14 1.92-.55zm-1.9.56l-.02-.02c-.16-.54.14-1.08.69-1.24.54-.15 1.08.15 1.24.69l-.02.02-1.89.55zm5.88 13.42l.02.02c.16.54-.14 1.08-.69 1.24-.54.15-1.08-.15-1.24-.69l.02-.02 1.89-.55z" class="logo-fg" fill-rule="nonzero"/><path d="M17 10v14h-2V10h2zm-1.98.02L15 10c0-.56.44-1 1-1s1 .44 1 1l-.02.02h-1.96zm1.96 13.96L17 24c0 .56-.44 1-1 1s-1-.44-1-1l.02-.02h1.96z" class="logo-fg" fill-rule="nonzero"/><path d="M13 12v12h-2V12h2zm-1.98.02L11 12c0-.56.44-1 1-1s1 .44 1 1l-.02.02h-1.96zm1.96 11.96L13 24c0 .56-.44 1-1 1s-1-.44-1-1l.02-.02h1.96z" class="logo-fg" fill-rule="nonzero"/><path d="M9 8v16H7V8h2zm-1.98.02L7 8c0-.56.44-1 1-1s1 .44 1 1l-.02.02H7.02zm1.96 15.96L9 24c0 .56-.44 1-1 1s-1-.44-1-1l.02-.02h1.96z" class="logo-fg" fill-rule="nonzero"/></svg>